# xmcd
#
# Track frame offsets:
#	150
#	10586
#	25339
#	37663
#	53375
#	65767
#	78333
#	89793
#	104803
#	115026
#	128437
#	141363
#	155889
#	168055
#	182549
#	195831
#
# Disc length: 2841 seconds
#
# Revision: 1
# Processed by: cddbd v1.5.2PL0 Copyright (c) Steve Scherf et al.
# Submitted via: audiograbber 1.83.01
#
DISCID=c40b1710
DTITLE=Mary Kelly - The Woman I Wanted To Be
DYEAR=2006
DGENRE=Country
TTITLE0=Singing The Blues
TTITLE1=Tennessee Waltz
TTITLE2=Will The Circle Be Unbroken
TTITLE3=Help Me Make It Through The Night
TTITLE4=Stand By Your Man 
TTITLE5=Don´t Make My Brown Eyes Blue
TTITLE6=It Wasen´t God Who Made The Honky Tonk Girls
TTITLE7=Release Me
TTITLE8=You Ain´t Woman Enough To Take My Man
TTITLE9=Paper Roses
TTITLE10=Crazy
TTITLE11=Blue Kentucky Girl
TTITLE12=Tonight The Bottle Let Me Down
TTITLE13=Could I Have This Dance
TTITLE14=I Fall To Pieces
TTITLE15=You Don´t Know Me
EXTD=
EXTT0=
EXTT1=
EXTT2=
EXTT3=
EXTT4=
EXTT5=
EXTT6=
EXTT7=
EXTT8=
EXTT9=
EXTT10=
EXTT11=
EXTT12=
EXTT13=
EXTT14=
EXTT15=
PLAYORDER=
